<svg width="430" height="932" viewBox="0 0 430 932" fill="none" xmlns="http://www.w3.org/2000/svg">
<g clip-path="url(#clip0_204_42)">
<rect width="430" height="932" fill="#2A175B"/>
<path d="M-195.979 513.884C-129.472 445.627 -75.0425 509.548 4.04206 508.96C57.6631 508.561 61.3119 475.5 120.886 475.5C230.386 475.5 229.06 523.749 325.886 454C392.33 406.137 465.319 601.592 535.886 606.5C569.297 608.824 599.94 573.168 626.706 520.842L737.443 148.713C737.443 148.713 694.517 388.275 626.706 520.842L451.386 1110L-306.277 884.537C-306.277 884.537 -293.736 614.214 -195.979 513.884Z" fill="#1F1147" fill-opacity="0.75" stroke="#1F1147" stroke-width="3"/>
<ellipse cx="63.5" cy="221" rx="21.5" ry="21" fill="#483084"/>
<ellipse cx="398.5" cy="71" rx="16.5" ry="19" fill="#483084"/>
<ellipse cx="318.5" cy="99.5" rx="10.5" ry="9.5" fill="#483084"/>
<ellipse cx="371.5" cy="161.5" rx="10.5" ry="9.5" fill="#483084"/>
<ellipse cx="32.5" cy="319.5" rx="10.5" ry="9.5" fill="#483084"/>
<ellipse cx="373.5" cy="338.5" rx="10.5" ry="9.5" fill="#483084"/>
<ellipse cx="357" cy="242.5" rx="6" ry="5.5" fill="#483084"/>
<ellipse cx="49" cy="99.5" rx="17" ry="16.5" fill="#483084"/>
</g>
<defs>
<clipPath id="clip0_204_42">
<rect width="430" height="932" fill="white"/>
</clipPath>
</defs>
</svg>
