<svg width="430" height="932" viewBox="0 0 430 932" fill="none" xmlns="http://www.w3.org/2000/svg">
<rect width="430" height="932" fill="#1F1147"/>
<ellipse cx="81.5" cy="140" rx="21.5" ry="21" fill="#483084"/>
<ellipse cx="390.5" cy="71" rx="16.5" ry="19" fill="#483084"/>
<ellipse cx="302.5" cy="190" rx="16.5" ry="19" fill="#483084"/>
<ellipse cx="318.5" cy="99.5" rx="10.5" ry="9.5" fill="#483084"/>
<ellipse cx="371.5" cy="161.5" rx="10.5" ry="9.5" fill="#483084"/>
<ellipse cx="92.5" cy="284.5" rx="10.5" ry="9.5" fill="#483084"/>
<ellipse cx="92.5" cy="284.5" rx="10.5" ry="9.5" fill="#483084"/>
<ellipse cx="367.5" cy="729.5" rx="10.5" ry="9.5" fill="#483084"/>
<ellipse cx="380.5" cy="660.5" rx="10.5" ry="9.5" fill="#483084"/>
<ellipse cx="363.5" cy="573.5" rx="10.5" ry="9.5" fill="#483084"/>
<ellipse cx="42.5" cy="660.5" rx="10.5" ry="9.5" fill="#483084"/>
<ellipse cx="71.5" cy="592.5" rx="10.5" ry="9.5" fill="#483084"/>
<ellipse cx="59.5" cy="748.5" rx="10.5" ry="9.5" fill="#483084"/>
<ellipse cx="92.5" cy="227.5" rx="10.5" ry="9.5" fill="#483084"/>
<ellipse cx="42.5" cy="238.5" rx="10.5" ry="9.5" fill="#483084"/>
<ellipse cx="373.5" cy="338.5" rx="10.5" ry="9.5" fill="#483084"/>
<ellipse cx="357" cy="242.5" rx="6" ry="5.5" fill="#483084"/>
<ellipse cx="43" cy="54.5" rx="17" ry="16.5" fill="#483084"/>
</svg>
